<svg height="466pt" viewBox="-3 0 466 466.53152" width="466pt" xmlns="http://www.w3.org/2000/svg"><path d="m154.203125 188.496094-142.113281-38.824219c-8.527344-2.304687-13.574219-11.085937-11.269532-19.617187 2.304688-8.527344 11.085938-13.574219 19.613282-11.269532l132.875 35.910156zm0 0" fill="#b9b9b9"/><path d="m142.140625 151.671875-1.050781 3.441406c-2.753906 9.234375-4.570313 18.71875-5.421875 28.320313l18.535156 5.0625-.894531-33.808594zm0 0" fill="#a8a8a8"/><path d="m428.171875 228.984375c-6.121094-15.710937-61.160156-41.390625-131.199219-60.320313-70.042968-18.929687-130.496094-24.457031-143.699218-13.96875l-2.621094 3.433594-3.128906 11.582032c-11.53125 42.652343 13.699218 86.574218 56.351562 98.105468l123.566406 33.390625c42.664063 11.550781 86.609375-13.683593 98.136719-56.351562l3.28125-12.855469zm0 0" fill="#e06661"/><path d="m296.953125 168.808594c-76.746094-20.757813-142.230469-25.488282-146.265625-10.5625-4.039062 14.921875 54.90625 43.84375 131.652344 64.601562 76.742187 20.757813 142.230468 25.488282 146.265625 10.566406 4.035156-14.925781-54.90625-43.847656-131.652344-64.605468zm0 0" fill="#878787"/><path d="m288.652344 199.558594c-62.957032-17.011719-115.394532-25.621094-117.121094-19.222656-1.730469 6.398437 47.902344 25.378906 110.859375 42.394531 62.953125 17.011719 115.390625 25.621093 117.121094 19.222656 1.726562-6.398437-47.90625-25.378906-110.859375-42.394531zm0 0" fill="#6f7478"/><path d="m258.644531 257.289062c-.765625-.003906-1.523437-.117187-2.257812-.328124-5.265625-1.554688-10.425781-3.132813-15.480469-4.738282-4.210938-1.335937-6.539062-5.835937-5.199219-10.046875 1.339844-4.210937 5.835938-6.539062 10.046875-5.199219 4.933594 1.566407 9.980469 3.113282 15.144532 4.632813 3.824218 1.113281 6.246093 4.875 5.679687 8.816406-.566406 3.945313-3.949219 6.871094-7.933594 6.863281zm0 0" fill="#ee6d67"/><path d="m305.121094 269.296875c-.585938 0-1.175782-.066406-1.75-.191406-5.171875-1.152344-10.425782-2.390625-15.761719-3.714844-4.21875-1.121094-6.757813-5.417969-5.707031-9.652344 1.050781-4.238281 5.300781-6.851562 9.554687-5.875 5.210938 1.289063 10.355469 2.496094 15.394531 3.625 3.976563.886719 6.652344 4.625 6.210938 8.675781-.445312 4.054688-3.863281 7.125-7.941406 7.132813zm0 0" fill="#ee6d67"/><path d="m299.84375 32h32v40h-32zm0 0" fill="#f7ba61"/><path d="m299.84375 32h32v20h-32zm0 0" fill="#ea9d2d"/><path d="m303.84375 0h24c11.042969 0 20 8.953125 20 20s-8.957031 20-20 20h-24c-11.046875 0-20-8.953125-20-20s8.953125-20 20-20zm0 0" fill="#985713"/><path d="m363.707031 88.992188 31.007813-25.269532 25.269531 31.003906-31.003906 25.273438zm0 0" fill="#aac16b"/><path d="m363.695312 88.996094 27.0625-22.054688 22.648438 27.785156-27.0625 22.058594zm0 0" fill="#a4bb67"/><path d="m267.84375 64c0 13.253906-10.746094 24-24 24s-24-10.746094-24-24 10.746094-24 24-24 24 10.746094 24 24zm0 0" fill="#f55648"/><path d="m242.578125 40.128906c-7.042969.371094-13.558594 3.835938-17.800781 9.472656-4.328125 7.410157-3.214844 16.792969 2.730468 22.984376 5.945313 6.191406 15.273438 7.683593 22.855469 3.65625 7.578125-4.023438 11.566407-12.59375 9.765625-20.984376-1.800781-8.390624-8.953125-14.570312-17.519531-15.128906zm0 0" fill="#ff5a4b"/><g fill="#fbedbf"><path d="m235.835938 112h16v16h-16zm0 0"/><path d="m307.835938 96h16v16h-16zm0 0"/><path d="m307.835938 128h16v24h-16zm0 0"/><path d="m395.835938 136h16v16h-16zm0 0"/><path d="m395.835938 168h16v16h-16zm0 0"/></g><path d="m182.714844 464-7.65625-22.960938c-5.316406-15.953124-3.695313-33.410156 4.472656-48.109374l27.183594-48.929688v44c0 12.980469 4.210937 25.613281 12 36 7.789062 10.386719 12 23.019531 12 36v4zm0 0" fill="#f08b24"/><path d="m132.742188 443.566406 15.171874-5.058594 7.652344 22.957032-15.171875 5.0625zm0 0" fill="#fbedbf"/><path d="m147.199219 372.109375 17.785156-31.996094 13.988281 7.773438-17.789062 31.996093zm0 0" fill="#fbedbf"/><path d="m132.730469 443.566406c-6.003907-18.085937-4.164063-37.859375 5.082031-54.527344l13.980469 7.777344c-7.066407 12.742188-8.476563 27.867188-3.878907 41.695313zm0 0" fill="#fbedbf"/><path d="m338.90625 392.929688-27.183594-48.929688v44c0 12.980469-4.210937 25.613281-12 36-1.070312 1.433594-1.902344 3-2.839844 4.511719 3.578126-16.960938.921876-34.640625-7.488281-49.800781l-32.617187-58.710938v52.800781c0 15.578125-5.050782 30.734375-14.398438 43.199219s-14.398437 27.621094-14.398437 43.199219v4.800781h107.742187l7.65625-22.960938c5.316406-15.953124 3.695313-33.410156-4.472656-48.109374zm0 0" fill="#fd9226"/><path d="m338.25 347.882812 13.984375-7.769531 10.734375 19.320313-13.984375 7.773437zm0 0" fill="#fbedbf"/><path d="m387.980469 424.257812-16-.515624c.296875-9.398438-1.957031-18.703126-6.523438-26.925782l-8.445312-15.199218 13.984375-7.769532 8.445312 15.199219c5.976563 10.75 8.929688 22.917969 8.539063 35.210937zm0 0" fill="#fbedbf"/><path d="m361.660156 461.46875 5.335938-15.996094 15.171875 5.0625-5.339844 15.996094zm0 0" fill="#fbedbf"/><path d="m172.820312 324.425781 8-16 14.3125 7.15625-8 16zm0 0" fill="#fbedbf"/><path d="m449.636719 117.65625-11.3125-11.3125c6.597656-6.613281 7.621093-16.960938 2.453125-24.742188l-3.445313-5.1875 13.3125-8.863281 3.445313 5.167969c9.386718 14.136719 7.523437 32.921875-4.453125 44.9375zm0 0" fill="#fbedbf"/><path d="m213.019531 242.113281c3.867188 0 7.179688-2.765625 7.871094-6.570312.691406-3.804688-1.4375-7.558594-5.054687-8.917969-30.464844-11.480469-53.289063-23.265625-62.402344-32.144531l-7.671875-8c-.265625-.21875-.550781-.417969-.847657-.59375-.480468 8.171875.308594 16.367187 2.335938 24.296875 19.464844 13.273437 40.636719 23.84375 62.945312 31.417968.902344.335938 1.859376.507813 2.824219.511719zm0 0" fill="#ee6d67"/></svg>